<svg width="48" height="48" viewBox="0 0 48 48" fill="none" xmlns="http://www.w3.org/2000/svg">
<path d="M24 2.82983L28.9877 7.82247L29.6477 8.48311L30.5779 8.40126L37.6079 7.78271L38.2195 14.8133L38.3004 15.7436L39.0657 16.2789L44.8485 20.3238L40.7979 26.1027L40.2619 26.8674L40.504 27.7693L42.3339 34.5851L35.5163 36.4082L34.6142 36.6495L34.2199 37.496L31.2406 43.8935L24.8461 40.9078L24 40.5127L23.1539 40.9078L16.7594 43.8935L13.78 37.496L13.3858 36.6495L12.4837 36.4082L5.66609 34.5851L7.496 27.7693L7.73813 26.8674L7.20214 26.1027L3.15145 20.3238L8.93435 16.2789L9.69955 15.7436L9.78048 14.8133L10.3921 7.78271L17.4221 8.40126L18.3523 8.48311L19.0123 7.82247L24 2.82983Z" stroke="black" stroke-width="4"/>
<path d="M20.7456 22.7712C22.661 22.7712 24.2112 21.221 24.2112 19.3056C24.2112 17.3902 22.661 15.84 20.7456 15.84C18.8303 15.84 17.28 17.3902 17.28 19.3056C17.28 21.221 18.8303 22.7712 20.7456 22.7712ZM20.7456 17.8203C21.5656 17.8203 22.2309 18.4856 22.2309 19.3056C22.2309 20.1256 21.5656 20.7909 20.7456 20.7909C19.9256 20.7909 19.2604 20.1256 19.2604 19.3056C19.2604 18.4856 19.9256 17.8203 20.7456 17.8203ZM27.6768 24.7515C25.7615 24.7515 24.2112 26.3018 24.2112 28.2171C24.2112 30.1325 25.7615 31.6828 27.6768 31.6828C29.5922 31.6828 31.1424 30.1325 31.1424 28.2171C31.1424 26.3018 29.5922 24.7515 27.6768 24.7515ZM27.6768 29.7024C26.8568 29.7024 26.1916 29.0371 26.1916 28.2171C26.1916 27.3972 26.8568 26.7319 27.6768 26.7319C28.4968 26.7319 29.1621 27.3972 29.1621 28.2171C29.1621 29.0371 28.4968 29.7024 27.6768 29.7024ZM29.4189 15.8462L30.3967 15.8431C30.997 15.84 31.3528 16.5177 31.0063 17.0127L19.675 31.3609C19.6067 31.4584 19.5159 31.5379 19.4103 31.5929C19.3048 31.6478 19.1875 31.6765 19.0685 31.6766L18.035 31.6797C17.4316 31.6797 17.0789 31.002 17.4255 30.51L28.8124 16.1618C28.9517 15.9638 29.1776 15.8462 29.4189 15.8462Z" fill="black"/>
</svg>
